<svg xmlns="http://www.w3.org/2000/svg" xmlns:xlink="http://www.w3.org/1999/xlink" width="512" height="512"><defs><path id="a" d="M358.253 93.948V3.713H0v90.235h358.253z"/></defs><g fill="none" fill-rule="evenodd"><path fill="#3D3D3D" d="M399.416 83.695h-286.58c-13.969 0-25.296-11.285-25.296-25.203V39.666c0-13.918 11.327-25.203 25.297-25.203h286.58c13.968 0 25.295 11.285 25.295 25.203v18.826c0 13.918-11.327 25.203-25.296 25.203Z"/><g transform="translate(77 .253)"><mask id="b" fill="#fff"><use xlink:href="#a"/></mask><path fill="#2E2E30" d="M35.84 24.715c-8.136 0-14.763 6.588-14.763 14.703v18.818c0 8.107 6.627 14.71 14.764 14.71h286.572c8.137 0 14.763-6.603 14.763-14.71V39.418c0-8.115-6.626-14.703-14.763-14.703H35.841Zm286.573 69.233H35.841C16.074 93.948-.003 77.93-.003 58.236V39.418c0-19.687 16.077-35.705 35.844-35.705h286.572c19.767 0 35.844 16.018 35.844 35.705v18.818c0 19.694-16.077 35.712-35.844 35.712Z" mask="url(#b)"/></g><path fill="#FEFEFE" d="M112.977 127.971h286.299V83.697H112.977z"/><path fill="#2E2E30" d="M123.517 117.47h265.218V94.199H123.517v23.27Zm275.759 21.003H112.977c-5.818 0-10.54-4.705-10.54-10.502V83.697c0-5.797 4.722-10.501 10.54-10.501h286.299c5.818 0 10.54 4.704 10.54 10.501v44.274c0 5.797-4.722 10.502-10.54 10.502Z"/><path fill="#040605" d="M399.416 14.466h-35.134c13.97 0 25.297 11.286 25.297 25.204v18.825c0 13.918-11.328 25.204-25.297 25.204h-.14v44.274h35.134V83.699h.14c13.97 0 25.296-11.286 25.296-25.204V39.67c0-13.918-11.327-25.204-25.296-25.204" opacity=".15"/><path fill="#FEFEFE" d="M398.809 127.97H113.445c-13.97 0-25.296 11.285-25.296 25.203v322.45c0 13.918 11.327 25.203 25.296 25.203h285.364c13.97 0 25.296-11.285 25.296-25.203v-322.45c0-13.918-11.327-25.204-25.296-25.204"/><path fill="#2E2E30" d="M113.444 138.474c-8.137 0-14.756 6.588-14.756 14.702V475.62c0 8.108 6.62 14.702 14.756 14.702h285.364c8.144 0 14.756-6.594 14.756-14.702V153.176c0-8.114-6.612-14.702-14.756-14.702H113.444Zm285.364 372.85H113.444c-19.759 0-35.836-16.018-35.836-35.705V153.176c0-19.687 16.077-35.705 35.836-35.705h285.364c19.76 0 35.837 16.018 35.837 35.705V475.62c0 19.687-16.077 35.705-35.837 35.705Z"/><path fill="#62B5E5" d="M139.735 428.257h228.236V195.685H139.735z"/><path fill="#2E2E30" d="M150.275 417.755h207.15V206.186h-207.15v211.57Zm217.69 21.003h-228.23c-5.818 0-10.54-4.705-10.54-10.501V195.685c0-5.797 4.722-10.502 10.54-10.502h228.23c5.817 0 10.54 4.705 10.54 10.502v232.572c0 5.796-4.723 10.501-10.54 10.501Z"/><path fill="#2E2E30" d="M253.85 309.32c-5.819 0-10.54-4.704-10.54-10.5v-63.247c0-5.797 4.721-10.502 10.54-10.502 5.818 0 10.54 4.705 10.54 10.502v63.246c0 5.797-4.722 10.502-10.54 10.502"/><path fill="#2E2E30" d="M285.593 277.7h-63.48c-5.818 0-10.54-4.704-10.54-10.501s4.722-10.502 10.54-10.502h63.48c5.818 0 10.54 4.705 10.54 10.502 0 5.797-4.722 10.501-10.54 10.501"/><path fill="#62B5E5" d="M183.673 339.367h138.645"/><path fill="#2E2E30" d="M322.32 349.87H183.673c-5.825 0-10.54-4.704-10.54-10.501s4.715-10.502 10.54-10.502h138.645c5.818 0 10.54 4.705 10.54 10.502 0 5.797-4.722 10.501-10.54 10.501"/><path fill="#62B5E5" d="M204.168 375.403h97.658"/><path fill="#2E2E30" d="M301.822 385.907h-97.65c-5.826 0-10.541-4.705-10.541-10.501 0-5.797 4.715-10.502 10.54-10.502h97.651c5.818 0 10.54 4.705 10.54 10.502 0 5.796-4.722 10.501-10.54 10.501"/><path fill="#040605" d="M113.446 500.824H398.81c13.969 0 25.296-11.285 25.296-25.203V153.17c0-13.918-11.327-25.204-25.296-25.204h-34.663S421.9 500.824 113.446 500.824" opacity=".15"/></g></svg>