<svg xmlns="http://www.w3.org/2000/svg" version="1.1" xmlns:xlink="http://www.w3.org/1999/xlink" xmlns:svgjs="http://svgjs.com/svgjs" width="1440" height="900" preserveAspectRatio="none" viewBox="0 0 1440 900"><g mask="url(&quot;#SvgjsMask1020&quot;)" fill="none"><rect width="1440" height="900" x="0" y="0" fill="rgba(0, 2, 4, 1)"></rect><path d="M-105.29 845.26L-105.29 845.26" stroke="#132e65" stroke-width="1.5"></path><path d="M-105.29 845.26L-98.31 991.85" stroke="#132e65" stroke-width="1.5"></path><path d="M-105.29 845.26L54.87 823.75" stroke="#132e65" stroke-width="1.5"></path><path d="M-105.29 845.26L47.35 940.63" stroke="#132e65" stroke-width="1.5"></path><path d="M-98.31 991.85L-98.31 991.85" stroke="#132e65" stroke-width="1.5"></path><path d="M-98.31 991.85L47.35 940.63" stroke="#132e65" stroke-width="1.5"></path><path d="M-98.31 991.85L54.87 823.75" stroke="#132e65" stroke-width="1.5"></path><path d="M-98.31 991.85L232.35 974.12" stroke="#132e65" stroke-width="1.5"></path><path d="M-98.31 991.85L216.02 808.31" stroke="#132e65" stroke-width="1.5"></path><path d="M41.33 558.71L41.33 558.71" stroke="#132e65" stroke-width="1.5"></path><path d="M41.33 558.71L68.02 662.91" stroke="#132e65" stroke-width="1.5"></path><path d="M41.33 558.71L253.69 651.14" stroke="#132e65" stroke-width="1.5"></path><path d="M41.33 558.71L54.87 823.75" stroke="#132e65" stroke-width="1.5"></path><path d="M41.33 558.71L216.02 808.31" stroke="#132e65" stroke-width="1.5"></path><path d="M41.33 558.71L352.99 533.92" stroke="#132e65" stroke-width="1.5"></path><path d="M68.02 662.91L68.02 662.91" stroke="#132e65" stroke-width="1.5"></path><path d="M68.02 662.91L54.87 823.75" stroke="#132e65" stroke-width="1.5"></path><path d="M68.02 662.91L253.69 651.14" stroke="#132e65" stroke-width="1.5"></path><path d="M68.02 662.91L216.02 808.31" stroke="#132e65" stroke-width="1.5"></path><path d="M68.02 662.91L-105.29 845.26" stroke="#132e65" stroke-width="1.5"></path><path d="M68.02 662.91L47.35 940.63" stroke="#132e65" stroke-width="1.5"></path><path d="M54.87 823.75L54.87 823.75" stroke="#132e65" stroke-width="1.5"></path><path d="M54.87 823.75L47.35 940.63" stroke="#132e65" stroke-width="1.5"></path><path d="M54.87 823.75L216.02 808.31" stroke="#132e65" stroke-width="1.5"></path><path d="M54.87 823.75L232.35 974.12" stroke="#132e65" stroke-width="1.5"></path><path d="M47.35 940.63L47.35 940.63" stroke="#132e65" stroke-width="1.5"></path><path d="M253.69 651.14L253.69 651.14" stroke="#132e65" stroke-width="1.5"></path><path d="M253.69 651.14L363.07 654.36" stroke="#132e65" stroke-width="1.5"></path><path d="M253.69 651.14L352.99 533.92" stroke="#132e65" stroke-width="1.5"></path><path d="M253.69 651.14L216.02 808.31" stroke="#132e65" stroke-width="1.5"></path><path d="M216.02 808.31L216.02 808.31" stroke="#132e65" stroke-width="1.5"></path><path d="M216.02 808.31L347.43 853.69" stroke="#132e65" stroke-width="1.5"></path><path d="M216.02 808.31L232.35 974.12" stroke="#132e65" stroke-width="1.5"></path><path d="M216.02 808.31L363.07 654.36" stroke="#132e65" stroke-width="1.5"></path><path d="M232.35 974.12L232.35 974.12" stroke="#132e65" stroke-width="1.5"></path><path d="M232.35 974.12L340.97 1002.92" stroke="#132e65" stroke-width="1.5"></path><path d="M232.35 974.12L347.43 853.69" stroke="#132e65" stroke-width="1.5"></path><path d="M352.99 533.92L352.99 533.92" stroke="#132e65" stroke-width="1.5"></path><path d="M352.99 533.92L363.07 654.36" stroke="#132e65" stroke-width="1.5"></path><path d="M352.99 533.92L558.24 663.84" stroke="#132e65" stroke-width="1.5"></path><path d="M352.99 533.92L644.08 549.95" stroke="#132e65" stroke-width="1.5"></path><path d="M363.07 654.36L363.07 654.36" stroke="#132e65" stroke-width="1.5"></path><path d="M363.07 654.36L558.24 663.84" stroke="#132e65" stroke-width="1.5"></path><path d="M347.43 853.69L347.43 853.69" stroke="#132e65" stroke-width="1.5"></path><path d="M347.43 853.69L340.97 1002.92" stroke="#132e65" stroke-width="1.5"></path><path d="M347.43 853.69L521.36 944.73" stroke="#132e65" stroke-width="1.5"></path><path d="M340.97 1002.92L340.97 1002.92" stroke="#132e65" stroke-width="1.5"></path><path d="M340.97 1002.92L521.36 944.73" stroke="#132e65" stroke-width="1.5"></path><path d="M340.97 1002.92L216.02 808.31" stroke="#132e65" stroke-width="1.5"></path><path d="M340.97 1002.92L536.81 794.35" stroke="#132e65" stroke-width="1.5"></path><path d="M558.24 663.84L558.24 663.84" stroke="#132e65" stroke-width="1.5"></path><path d="M558.24 663.84L642.4 657.97" stroke="#132e65" stroke-width="1.5"></path><path d="M558.24 663.84L536.81 794.35" stroke="#132e65" stroke-width="1.5"></path><path d="M558.24 663.84L644.08 549.95" stroke="#132e65" stroke-width="1.5"></path><path d="M558.24 663.84L710.66 798.38" stroke="#132e65" stroke-width="1.5"></path><path d="M536.81 794.35L536.81 794.35" stroke="#132e65" stroke-width="1.5"></path><path d="M536.81 794.35L521.36 944.73" stroke="#132e65" stroke-width="1.5"></path><path d="M536.81 794.35L642.4 657.97" stroke="#132e65" stroke-width="1.5"></path><path d="M536.81 794.35L710.66 798.38" stroke="#132e65" stroke-width="1.5"></path><path d="M521.36 944.73L521.36 944.73" stroke="#132e65" stroke-width="1.5"></path><path d="M521.36 944.73L682.86 953.34" stroke="#132e65" stroke-width="1.5"></path><path d="M521.36 944.73L710.66 798.38" stroke="#132e65" stroke-width="1.5"></path><path d="M521.36 944.73L558.24 663.84" stroke="#132e65" stroke-width="1.5"></path><path d="M684.26 364.16L684.26 364.16" stroke="#132e65" stroke-width="1.5"></path><path d="M684.26 364.16L818.68 341.82" stroke="#132e65" stroke-width="1.5"></path><path d="M684.26 364.16L791.57 245.79" stroke="#132e65" stroke-width="1.5"></path><path d="M684.26 364.16L644.08 549.95" stroke="#132e65" stroke-width="1.5"></path><path d="M644.08 549.95L644.08 549.95" stroke="#132e65" stroke-width="1.5"></path><path d="M644.08 549.95L642.4 657.97" stroke="#132e65" stroke-width="1.5"></path><path d="M642.4 657.97L642.4 657.97" stroke="#132e65" stroke-width="1.5"></path><path d="M642.4 657.97L710.66 798.38" stroke="#132e65" stroke-width="1.5"></path><path d="M642.4 657.97L827.15 661.23" stroke="#132e65" stroke-width="1.5"></path><path d="M710.66 798.38L710.66 798.38" stroke="#132e65" stroke-width="1.5"></path><path d="M710.66 798.38L682.86 953.34" stroke="#132e65" stroke-width="1.5"></path><path d="M710.66 798.38L827.15 661.23" stroke="#132e65" stroke-width="1.5"></path><path d="M710.66 798.38L835.13 980.79" stroke="#132e65" stroke-width="1.5"></path><path d="M682.86 953.34L682.86 953.34" stroke="#132e65" stroke-width="1.5"></path><path d="M682.86 953.34L835.13 980.79" stroke="#132e65" stroke-width="1.5"></path><path d="M682.86 953.34L536.81 794.35" stroke="#132e65" stroke-width="1.5"></path><path d="M791.57 245.79L791.57 245.79" stroke="#132e65" stroke-width="1.5"></path><path d="M791.57 245.79L818.68 341.82" stroke="#132e65" stroke-width="1.5"></path><path d="M791.57 245.79L955.1 241.52" stroke="#132e65" stroke-width="1.5"></path><path d="M791.57 245.79L977.24 362.31" stroke="#132e65" stroke-width="1.5"></path><path d="M791.57 245.79L831.21 513.24" stroke="#132e65" stroke-width="1.5"></path><path d="M791.57 245.79L975.26 39.93" stroke="#132e65" stroke-width="1.5"></path><path d="M818.68 341.82L818.68 341.82" stroke="#132e65" stroke-width="1.5"></path><path d="M818.68 341.82L977.24 362.31" stroke="#132e65" stroke-width="1.5"></path><path d="M818.68 341.82L955.1 241.52" stroke="#132e65" stroke-width="1.5"></path><path d="M818.68 341.82L831.21 513.24" stroke="#132e65" stroke-width="1.5"></path><path d="M818.68 341.82L938.62 549.65" stroke="#132e65" stroke-width="1.5"></path><path d="M831.21 513.24L831.21 513.24" stroke="#132e65" stroke-width="1.5"></path><path d="M831.21 513.24L938.62 549.65" stroke="#132e65" stroke-width="1.5"></path><path d="M831.21 513.24L827.15 661.23" stroke="#132e65" stroke-width="1.5"></path><path d="M827.15 661.23L827.15 661.23" stroke="#132e65" stroke-width="1.5"></path><path d="M827.15 661.23L945.1 709.15" stroke="#132e65" stroke-width="1.5"></path><path d="M827.15 661.23L938.62 549.65" stroke="#132e65" stroke-width="1.5"></path><path d="M835.13 980.79L835.13 980.79" stroke="#132e65" stroke-width="1.5"></path><path d="M835.13 980.79L984.61 981.71" stroke="#132e65" stroke-width="1.5"></path><path d="M835.13 980.79L978.14 831.79" stroke="#132e65" stroke-width="1.5"></path><path d="M979.28 -68.51L979.28 -68.51" stroke="#132e65" stroke-width="1.5"></path><path d="M979.28 -68.51L975.26 39.93" stroke="#132e65" stroke-width="1.5"></path><path d="M979.28 -68.51L1110.55 -57.42" stroke="#132e65" stroke-width="1.5"></path><path d="M975.26 39.93L975.26 39.93" stroke="#132e65" stroke-width="1.5"></path><path d="M975.26 39.93L1104.81 68.05" stroke="#132e65" stroke-width="1.5"></path><path d="M975.26 39.93L1110.55 -57.42" stroke="#132e65" stroke-width="1.5"></path><path d="M975.26 39.93L955.1 241.52" stroke="#132e65" stroke-width="1.5"></path><path d="M975.26 39.93L1120.68 229.35" stroke="#132e65" stroke-width="1.5"></path><path d="M955.1 241.52L955.1 241.52" stroke="#132e65" stroke-width="1.5"></path><path d="M955.1 241.52L977.24 362.31" stroke="#132e65" stroke-width="1.5"></path><path d="M955.1 241.52L1120.68 229.35" stroke="#132e65" stroke-width="1.5"></path><path d="M977.24 362.31L977.24 362.31" stroke="#132e65" stroke-width="1.5"></path><path d="M977.24 362.31L1117.13 376.99" stroke="#132e65" stroke-width="1.5"></path><path d="M977.24 362.31L938.62 549.65" stroke="#132e65" stroke-width="1.5"></path><path d="M977.24 362.31L1120.68 229.35" stroke="#132e65" stroke-width="1.5"></path><path d="M977.24 362.31L831.21 513.24" stroke="#132e65" stroke-width="1.5"></path><path d="M938.62 549.65L938.62 549.65" stroke="#132e65" stroke-width="1.5"></path><path d="M938.62 549.65L945.1 709.15" stroke="#132e65" stroke-width="1.5"></path><path d="M945.1 709.15L945.1 709.15" stroke="#132e65" stroke-width="1.5"></path><path d="M945.1 709.15L978.14 831.79" stroke="#132e65" stroke-width="1.5"></path><path d="M945.1 709.15L1141.23 664.45" stroke="#132e65" stroke-width="1.5"></path><path d="M978.14 831.79L978.14 831.79" stroke="#132e65" stroke-width="1.5"></path><path d="M978.14 831.79L984.61 981.71" stroke="#132e65" stroke-width="1.5"></path><path d="M978.14 831.79L1142.82 839.32" stroke="#132e65" stroke-width="1.5"></path><path d="M978.14 831.79L1102.27 962.67" stroke="#132e65" stroke-width="1.5"></path><path d="M978.14 831.79L827.15 661.23" stroke="#132e65" stroke-width="1.5"></path><path d="M984.61 981.71L984.61 981.71" stroke="#132e65" stroke-width="1.5"></path><path d="M984.61 981.71L1102.27 962.67" stroke="#132e65" stroke-width="1.5"></path><path d="M984.61 981.71L1142.82 839.32" stroke="#132e65" stroke-width="1.5"></path><path d="M1110.55 -57.42L1110.55 -57.42" stroke="#132e65" stroke-width="1.5"></path><path d="M1110.55 -57.42L1104.81 68.05" stroke="#132e65" stroke-width="1.5"></path><path d="M1110.55 -57.42L1261.59 -86.65" stroke="#132e65" stroke-width="1.5"></path><path d="M1110.55 -57.42L1268 73.26" stroke="#132e65" stroke-width="1.5"></path><path d="M1110.55 -57.42L1120.68 229.35" stroke="#132e65" stroke-width="1.5"></path><path d="M1104.81 68.05L1104.81 68.05" stroke="#132e65" stroke-width="1.5"></path><path d="M1104.81 68.05L1120.68 229.35" stroke="#132e65" stroke-width="1.5"></path><path d="M1104.81 68.05L1268 73.26" stroke="#132e65" stroke-width="1.5"></path><path d="M1120.68 229.35L1120.68 229.35" stroke="#132e65" stroke-width="1.5"></path><path d="M1120.68 229.35L1252.65 226.47" stroke="#132e65" stroke-width="1.5"></path><path d="M1120.68 229.35L1117.13 376.99" stroke="#132e65" stroke-width="1.5"></path><path d="M1117.13 376.99L1117.13 376.99" stroke="#132e65" stroke-width="1.5"></path><path d="M1117.13 376.99L1257.83 369.74" stroke="#132e65" stroke-width="1.5"></path><path d="M1111.39 539.36L1111.39 539.36" stroke="#132e65" stroke-width="1.5"></path><path d="M1111.39 539.36L1141.23 664.45" stroke="#132e65" stroke-width="1.5"></path><path d="M1111.39 539.36L1117.13 376.99" stroke="#132e65" stroke-width="1.5"></path><path d="M1111.39 539.36L938.62 549.65" stroke="#132e65" stroke-width="1.5"></path><path d="M1141.23 664.45L1141.23 664.45" stroke="#132e65" stroke-width="1.5"></path><path d="M1141.23 664.45L1301.97 689.85" stroke="#132e65" stroke-width="1.5"></path><path d="M1141.23 664.45L1142.82 839.32" stroke="#132e65" stroke-width="1.5"></path><path d="M1142.82 839.32L1142.82 839.32" stroke="#132e65" stroke-width="1.5"></path><path d="M1142.82 839.32L1102.27 962.67" stroke="#132e65" stroke-width="1.5"></path><path d="M1142.82 839.32L1307.45 824.16" stroke="#132e65" stroke-width="1.5"></path><path d="M1102.27 962.67L1102.27 962.67" stroke="#132e65" stroke-width="1.5"></path><path d="M1261.59 -86.65L1261.59 -86.65" stroke="#132e65" stroke-width="1.5"></path><path d="M1261.59 -86.65L1268 73.26" stroke="#132e65" stroke-width="1.5"></path><path d="M1261.59 -86.65L1104.81 68.05" stroke="#132e65" stroke-width="1.5"></path><path d="M1261.59 -86.65L1449.46 94.02" stroke="#132e65" stroke-width="1.5"></path><path d="M1261.59 -86.65L979.28 -68.51" stroke="#132e65" stroke-width="1.5"></path><path d="M1261.59 -86.65L975.26 39.93" stroke="#132e65" stroke-width="1.5"></path><path d="M1268 73.26L1268 73.26" stroke="#132e65" stroke-width="1.5"></path><path d="M1268 73.26L1252.65 226.47" stroke="#132e65" stroke-width="1.5"></path><path d="M1252.65 226.47L1252.65 226.47" stroke="#132e65" stroke-width="1.5"></path><path d="M1252.65 226.47L1257.83 369.74" stroke="#132e65" stroke-width="1.5"></path><path d="M1257.83 369.74L1257.83 369.74" stroke="#132e65" stroke-width="1.5"></path><path d="M1306.62 533.43L1306.62 533.43" stroke="#132e65" stroke-width="1.5"></path><path d="M1306.62 533.43L1406.47 525.22" stroke="#132e65" stroke-width="1.5"></path><path d="M1306.62 533.43L1301.97 689.85" stroke="#132e65" stroke-width="1.5"></path><path d="M1301.97 689.85L1301.97 689.85" stroke="#132e65" stroke-width="1.5"></path><path d="M1301.97 689.85L1407.88 654.32" stroke="#132e65" stroke-width="1.5"></path><path d="M1301.97 689.85L1307.45 824.16" stroke="#132e65" stroke-width="1.5"></path><path d="M1307.45 824.16L1307.45 824.16" stroke="#132e65" stroke-width="1.5"></path><path d="M1307.45 824.16L1413.69 803.7" stroke="#132e65" stroke-width="1.5"></path><path d="M1307.45 824.16L1306.56 977.4" stroke="#132e65" stroke-width="1.5"></path><path d="M1306.56 977.4L1306.56 977.4" stroke="#132e65" stroke-width="1.5"></path><path d="M1306.56 977.4L1452.66 976.22" stroke="#132e65" stroke-width="1.5"></path><path d="M1306.56 977.4L1413.69 803.7" stroke="#132e65" stroke-width="1.5"></path><path d="M1306.56 977.4L1102.27 962.67" stroke="#132e65" stroke-width="1.5"></path><path d="M1306.56 977.4L1142.82 839.32" stroke="#132e65" stroke-width="1.5"></path><path d="M1449.46 94.02L1449.46 94.02" stroke="#132e65" stroke-width="1.5"></path><path d="M1449.46 94.02L1455.7 239.9" stroke="#132e65" stroke-width="1.5"></path><path d="M1449.46 94.02L1268 73.26" stroke="#132e65" stroke-width="1.5"></path><path d="M1449.46 94.02L1252.65 226.47" stroke="#132e65" stroke-width="1.5"></path><path d="M1455.7 239.9L1455.7 239.9" stroke="#132e65" stroke-width="1.5"></path><path d="M1407.96 393.78L1407.96 393.78" stroke="#132e65" stroke-width="1.5"></path><path d="M1407.96 393.78L1406.47 525.22" stroke="#132e65" stroke-width="1.5"></path><path d="M1407.96 393.78L1257.83 369.74" stroke="#132e65" stroke-width="1.5"></path><path d="M1407.96 393.78L1455.7 239.9" stroke="#132e65" stroke-width="1.5"></path><path d="M1407.96 393.78L1306.62 533.43" stroke="#132e65" stroke-width="1.5"></path><path d="M1406.47 525.22L1406.47 525.22" stroke="#132e65" stroke-width="1.5"></path><path d="M1406.47 525.22L1407.88 654.32" stroke="#132e65" stroke-width="1.5"></path><path d="M1406.47 525.22L1541.54 659.77" stroke="#132e65" stroke-width="1.5"></path><path d="M1406.47 525.22L1301.97 689.85" stroke="#132e65" stroke-width="1.5"></path><path d="M1407.88 654.32L1407.88 654.32" stroke="#132e65" stroke-width="1.5"></path><path d="M1407.88 654.32L1541.54 659.77" stroke="#132e65" stroke-width="1.5"></path><path d="M1413.69 803.7L1413.69 803.7" stroke="#132e65" stroke-width="1.5"></path><path d="M1413.69 803.7L1539.29 858.63" stroke="#132e65" stroke-width="1.5"></path><path d="M1413.69 803.7L1407.88 654.32" stroke="#132e65" stroke-width="1.5"></path><path d="M1452.66 976.22L1452.66 976.22" stroke="#132e65" stroke-width="1.5"></path><path d="M1452.66 976.22L1545.83 981.74" stroke="#132e65" stroke-width="1.5"></path><path d="M1452.66 976.22L1539.29 858.63" stroke="#132e65" stroke-width="1.5"></path><path d="M1452.66 976.22L1413.69 803.7" stroke="#132e65" stroke-width="1.5"></path><path d="M1595.19 -111.32L1595.19 -111.32" stroke="#132e65" stroke-width="1.5"></path><path d="M1595.19 -111.32L1449.46 94.02" stroke="#132e65" stroke-width="1.5"></path><path d="M1595.19 -111.32L1261.59 -86.65" stroke="#132e65" stroke-width="1.5"></path><path d="M1595.19 -111.32L1268 73.26" stroke="#132e65" stroke-width="1.5"></path><path d="M1602.05 408.97L1602.05 408.97" stroke="#132e65" stroke-width="1.5"></path><path d="M1602.05 408.97L1407.96 393.78" stroke="#132e65" stroke-width="1.5"></path><path d="M1602.05 408.97L1455.7 239.9" stroke="#132e65" stroke-width="1.5"></path><path d="M1602.05 408.97L1406.47 525.22" stroke="#132e65" stroke-width="1.5"></path><path d="M1602.05 408.97L1541.54 659.77" stroke="#132e65" stroke-width="1.5"></path><path d="M1602.05 408.97L1407.88 654.32" stroke="#132e65" stroke-width="1.5"></path><path d="M1602.05 408.97L1306.62 533.43" stroke="#132e65" stroke-width="1.5"></path><path d="M1541.54 659.77L1541.54 659.77" stroke="#132e65" stroke-width="1.5"></path><path d="M1541.54 659.77L1413.69 803.7" stroke="#132e65" stroke-width="1.5"></path><path d="M1541.54 659.77L1539.29 858.63" stroke="#132e65" stroke-width="1.5"></path><path d="M1541.54 659.77L1301.97 689.85" stroke="#132e65" stroke-width="1.5"></path><path d="M1539.29 858.63L1539.29 858.63" stroke="#132e65" stroke-width="1.5"></path><path d="M1539.29 858.63L1545.83 981.74" stroke="#132e65" stroke-width="1.5"></path><path d="M1539.29 858.63L1307.45 824.16" stroke="#132e65" stroke-width="1.5"></path><path d="M1545.83 981.74L1545.83 981.74" stroke="#132e65" stroke-width="1.5"></path><path d="M1545.83 981.74L1413.69 803.7" stroke="#132e65" stroke-width="1.5"></path><path d="M1545.83 981.74L1306.56 977.4" stroke="#132e65" stroke-width="1.5"></path><circle r="5" cx="-105.29" cy="845.26" fill="#132e65"></circle><circle r="5" cx="-98.31" cy="991.85" fill="#132e65"></circle><circle r="5" cx="41.33" cy="558.71" fill="#132e65"></circle><circle r="5" cx="68.02" cy="662.91" fill="#132e65"></circle><circle r="5" cx="54.87" cy="823.75" fill="#132e65"></circle><circle r="5" cx="47.35" cy="940.63" fill="#132e65"></circle><circle r="5" cx="253.69" cy="651.14" fill="#132e65"></circle><circle r="5" cx="216.02" cy="808.31" fill="#132e65"></circle><circle r="5" cx="232.35" cy="974.12" fill="#132e65"></circle><circle r="5" cx="352.99" cy="533.92" fill="#132e65"></circle><circle r="5" cx="363.07" cy="654.36" fill="#132e65"></circle><circle r="5" cx="347.43" cy="853.69" fill="#132e65"></circle><circle r="5" cx="340.97" cy="1002.92" fill="#132e65"></circle><circle r="5" cx="558.24" cy="663.84" fill="#132e65"></circle><circle r="5" cx="536.81" cy="794.35" fill="#132e65"></circle><circle r="5" cx="521.36" cy="944.73" fill="#132e65"></circle><circle r="5" cx="684.26" cy="364.16" fill="#132e65"></circle><circle r="5" cx="644.08" cy="549.95" fill="#132e65"></circle><circle r="5" cx="642.4" cy="657.97" fill="#132e65"></circle><circle r="5" cx="710.66" cy="798.38" fill="#132e65"></circle><circle r="5" cx="682.86" cy="953.34" fill="#132e65"></circle><circle r="5" cx="791.57" cy="245.79" fill="#132e65"></circle><circle r="5" cx="818.68" cy="341.82" fill="#132e65"></circle><circle r="5" cx="831.21" cy="513.24" fill="#132e65"></circle><circle r="5" cx="827.15" cy="661.23" fill="#132e65"></circle><circle r="5" cx="835.13" cy="980.79" fill="#132e65"></circle><circle r="5" cx="979.28" cy="-68.51" fill="#132e65"></circle><circle r="5" cx="975.26" cy="39.93" fill="#132e65"></circle><circle r="5" cx="955.1" cy="241.52" fill="#132e65"></circle><circle r="5" cx="977.24" cy="362.31" fill="#132e65"></circle><circle r="5" cx="938.62" cy="549.65" fill="#132e65"></circle><circle r="5" cx="945.1" cy="709.15" fill="#132e65"></circle><circle r="5" cx="978.14" cy="831.79" fill="#132e65"></circle><circle r="5" cx="984.61" cy="981.71" fill="#132e65"></circle><circle r="5" cx="1110.55" cy="-57.42" fill="#132e65"></circle><circle r="5" cx="1104.81" cy="68.05" fill="#132e65"></circle><circle r="5" cx="1120.68" cy="229.35" fill="#132e65"></circle><circle r="5" cx="1117.13" cy="376.99" fill="#132e65"></circle><circle r="5" cx="1111.39" cy="539.36" fill="#132e65"></circle><circle r="5" cx="1141.23" cy="664.45" fill="#132e65"></circle><circle r="5" cx="1142.82" cy="839.32" fill="#132e65"></circle><circle r="5" cx="1102.27" cy="962.67" fill="#132e65"></circle><circle r="5" cx="1261.59" cy="-86.65" fill="#132e65"></circle><circle r="5" cx="1268" cy="73.26" fill="#132e65"></circle><circle r="5" cx="1252.65" cy="226.47" fill="#132e65"></circle><circle r="5" cx="1257.83" cy="369.74" fill="#132e65"></circle><circle r="5" cx="1306.62" cy="533.43" fill="#132e65"></circle><circle r="5" cx="1301.97" cy="689.85" fill="#132e65"></circle><circle r="5" cx="1307.45" cy="824.16" fill="#132e65"></circle><circle r="5" cx="1306.56" cy="977.4" fill="#132e65"></circle><circle r="5" cx="1449.46" cy="94.02" fill="#132e65"></circle><circle r="5" cx="1455.7" cy="239.9" fill="#132e65"></circle><circle r="5" cx="1407.96" cy="393.78" fill="#132e65"></circle><circle r="5" cx="1406.47" cy="525.22" fill="#132e65"></circle><circle r="5" cx="1407.88" cy="654.32" fill="#132e65"></circle><circle r="5" cx="1413.69" cy="803.7" fill="#132e65"></circle><circle r="5" cx="1452.66" cy="976.22" fill="#132e65"></circle><circle r="5" cx="1595.19" cy="-111.32" fill="#132e65"></circle><circle r="5" cx="1602.05" cy="408.97" fill="#132e65"></circle><circle r="5" cx="1541.54" cy="659.77" fill="#132e65"></circle><circle r="5" cx="1539.29" cy="858.63" fill="#132e65"></circle><circle r="5" cx="1545.83" cy="981.74" fill="#132e65"></circle><path d="M-59.43 950.35L-59.43 950.35" stroke="hsl(228.39999999999998, 78.2%, 42.1%)" stroke-width="1.5"></path><path d="M-59.43 950.35L-83.95 858.45" stroke="hsl(228.39999999999998, 78.2%, 42.1%)" stroke-width="1.5"></path><path d="M109.93 828.74L109.93 828.74" stroke="hsl(228.39999999999998, 78.2%, 42.1%)" stroke-width="1.5"></path><path d="M109.93 828.74L257.78 817.38" stroke="hsl(228.39999999999998, 78.2%, 42.1%)" stroke-width="1.5"></path><path d="M109.93 828.74L-83.95 858.45" stroke="hsl(228.39999999999998, 78.2%, 42.1%)" stroke-width="1.5"></path><path d="M640.53 790.75L640.53 790.75" stroke="hsl(228.39999999999998, 78.2%, 42.1%)" stroke-width="1.5"></path><path d="M640.53 790.75L705.28 677.26" stroke="hsl(228.39999999999998, 78.2%, 42.1%)" stroke-width="1.5"></path><path d="M1009.75 799.93L1009.75 799.93" stroke="hsl(228.39999999999998, 78.2%, 42.1%)" stroke-width="1.5"></path><path d="M1009.75 799.93L996.15 676.48" stroke="hsl(228.39999999999998, 78.2%, 42.1%)" stroke-width="1.5"></path><path d="M1009.75 799.93L1144.47 799.96" stroke="hsl(228.39999999999998, 78.2%, 42.1%)" stroke-width="1.5"></path><path d="M1009.75 799.93L1129.12 692.51" stroke="hsl(228.39999999999998, 78.2%, 42.1%)" stroke-width="1.5"></path><path d="M1009.75 799.93L940.26 977.71" stroke="hsl(228.39999999999998, 78.2%, 42.1%)" stroke-width="1.5"></path><path d="M940.26 977.71L940.26 977.71" stroke="hsl(228.39999999999998, 78.2%, 42.1%)" stroke-width="1.5"></path><path d="M940.26 977.71L818.31 981.06" stroke="hsl(228.39999999999998, 78.2%, 42.1%)" stroke-width="1.5"></path><path d="M940.26 977.71L789.88 849.44" stroke="hsl(228.39999999999998, 78.2%, 42.1%)" stroke-width="1.5"></path><path d="M940.26 977.71L1142.06 968.59" stroke="hsl(228.39999999999998, 78.2%, 42.1%)" stroke-width="1.5"></path><path d="M940.26 977.71L1144.47 799.96" stroke="hsl(228.39999999999998, 78.2%, 42.1%)" stroke-width="1.5"></path><path d="M940.26 977.71L660.42 1003.76" stroke="hsl(228.39999999999998, 78.2%, 42.1%)" stroke-width="1.5"></path><path d="M1310.84 514.02L1310.84 514.02" stroke="hsl(228.39999999999998, 78.2%, 42.1%)" stroke-width="1.5"></path><path d="M1310.84 514.02L1417.94 530.85" stroke="hsl(228.39999999999998, 78.2%, 42.1%)" stroke-width="1.5"></path><path d="M1310.84 514.02L1274.96 383.1" stroke="hsl(228.39999999999998, 78.2%, 42.1%)" stroke-width="1.5"></path><path d="M1310.84 514.02L1157.3 491.78" stroke="hsl(228.39999999999998, 78.2%, 42.1%)" stroke-width="1.5"></path><path d="M1310.84 514.02L1285.58 684.43" stroke="hsl(228.39999999999998, 78.2%, 42.1%)" stroke-width="1.5"></path><path d="M1415.19 67.33L1415.19 67.33" stroke="hsl(228.39999999999998, 78.2%, 42.1%)" stroke-width="1.5"></path><path d="M1415.19 67.33L1391.31 194.57" stroke="hsl(228.39999999999998, 78.2%, 42.1%)" stroke-width="1.5"></path><path d="M1415.19 67.33L1282.66 73.82" stroke="hsl(228.39999999999998, 78.2%, 42.1%)" stroke-width="1.5"></path><path d="M1415.19 67.33L1444.03 -96.15" stroke="hsl(228.39999999999998, 78.2%, 42.1%)" stroke-width="1.5"></path><path d="M-83.95 858.45L-83.95 858.45" stroke="hsl(228.39999999999998, 78.2%, 42.1%)" stroke-width="1.5"></path><path d="M-83.95 858.45L209.08 1011.03" stroke="hsl(228.39999999999998, 78.2%, 42.1%)" stroke-width="1.5"></path><path d="M-83.95 858.45L257.78 817.38" stroke="hsl(228.39999999999998, 78.2%, 42.1%)" stroke-width="1.5"></path><path d="M-83.95 858.45L386.63 829.22" stroke="hsl(228.39999999999998, 78.2%, 42.1%)" stroke-width="1.5"></path><path d="M257.78 817.38L257.78 817.38" stroke="hsl(228.39999999999998, 78.2%, 42.1%)" stroke-width="1.5"></path><path d="M257.78 817.38L386.63 829.22" stroke="hsl(228.39999999999998, 78.2%, 42.1%)" stroke-width="1.5"></path><path d="M257.78 817.38L209.08 1011.03" stroke="hsl(228.39999999999998, 78.2%, 42.1%)" stroke-width="1.5"></path><path d="M257.78 817.38L386.46 994.85" stroke="hsl(228.39999999999998, 78.2%, 42.1%)" stroke-width="1.5"></path><path d="M257.78 817.38L496.84 836.33" stroke="hsl(228.39999999999998, 78.2%, 42.1%)" stroke-width="1.5"></path><path d="M257.78 817.38L511.25 655.22" stroke="hsl(228.39999999999998, 78.2%, 42.1%)" stroke-width="1.5"></path><path d="M209.08 1011.03L209.08 1011.03" stroke="hsl(228.39999999999998, 78.2%, 42.1%)" stroke-width="1.5"></path><path d="M209.08 1011.03L386.46 994.85" stroke="hsl(228.39999999999998, 78.2%, 42.1%)" stroke-width="1.5"></path><path d="M209.08 1011.03L109.93 828.74" stroke="hsl(228.39999999999998, 78.2%, 42.1%)" stroke-width="1.5"></path><path d="M209.08 1011.03L386.63 829.22" stroke="hsl(228.39999999999998, 78.2%, 42.1%)" stroke-width="1.5"></path><path d="M209.08 1011.03L-59.43 950.35" stroke="hsl(228.39999999999998, 78.2%, 42.1%)" stroke-width="1.5"></path><path d="M209.08 1011.03L507.21 998.83" stroke="hsl(228.39999999999998, 78.2%, 42.1%)" stroke-width="1.5"></path><path d="M386.63 829.22L386.63 829.22" stroke="hsl(228.39999999999998, 78.2%, 42.1%)" stroke-width="1.5"></path><path d="M386.63 829.22L496.84 836.33" stroke="hsl(228.39999999999998, 78.2%, 42.1%)" stroke-width="1.5"></path><path d="M386.63 829.22L386.46 994.85" stroke="hsl(228.39999999999998, 78.2%, 42.1%)" stroke-width="1.5"></path><path d="M386.63 829.22L507.21 998.83" stroke="hsl(228.39999999999998, 78.2%, 42.1%)" stroke-width="1.5"></path><path d="M386.63 829.22L511.25 655.22" stroke="hsl(228.39999999999998, 78.2%, 42.1%)" stroke-width="1.5"></path><path d="M386.46 994.85L386.46 994.85" stroke="hsl(228.39999999999998, 78.2%, 42.1%)" stroke-width="1.5"></path><path d="M386.46 994.85L507.21 998.83" stroke="hsl(228.39999999999998, 78.2%, 42.1%)" stroke-width="1.5"></path><path d="M386.46 994.85L496.84 836.33" stroke="hsl(228.39999999999998, 78.2%, 42.1%)" stroke-width="1.5"></path><path d="M511.25 655.22L511.25 655.22" stroke="hsl(228.39999999999998, 78.2%, 42.1%)" stroke-width="1.5"></path><path d="M511.25 655.22L496.84 836.33" stroke="hsl(228.39999999999998, 78.2%, 42.1%)" stroke-width="1.5"></path><path d="M511.25 655.22L640.53 790.75" stroke="hsl(228.39999999999998, 78.2%, 42.1%)" stroke-width="1.5"></path><path d="M511.25 655.22L705.28 677.26" stroke="hsl(228.39999999999998, 78.2%, 42.1%)" stroke-width="1.5"></path><path d="M511.25 655.22L844.48 704.25" stroke="hsl(228.39999999999998, 78.2%, 42.1%)" stroke-width="1.5"></path><path d="M496.84 836.33L496.84 836.33" stroke="hsl(228.39999999999998, 78.2%, 42.1%)" stroke-width="1.5"></path><path d="M496.84 836.33L640.53 790.75" stroke="hsl(228.39999999999998, 78.2%, 42.1%)" stroke-width="1.5"></path><path d="M507.21 998.83L507.21 998.83" stroke="hsl(228.39999999999998, 78.2%, 42.1%)" stroke-width="1.5"></path><path d="M507.21 998.83L660.42 1003.76" stroke="hsl(228.39999999999998, 78.2%, 42.1%)" stroke-width="1.5"></path><path d="M507.21 998.83L496.84 836.33" stroke="hsl(228.39999999999998, 78.2%, 42.1%)" stroke-width="1.5"></path><path d="M705.28 677.26L705.28 677.26" stroke="hsl(228.39999999999998, 78.2%, 42.1%)" stroke-width="1.5"></path><path d="M705.28 677.26L844.48 704.25" stroke="hsl(228.39999999999998, 78.2%, 42.1%)" stroke-width="1.5"></path><path d="M705.28 677.26L849.36 550.74" stroke="hsl(228.39999999999998, 78.2%, 42.1%)" stroke-width="1.5"></path><path d="M705.28 677.26L789.88 849.44" stroke="hsl(228.39999999999998, 78.2%, 42.1%)" stroke-width="1.5"></path><path d="M660.42 1003.76L660.42 1003.76" stroke="hsl(228.39999999999998, 78.2%, 42.1%)" stroke-width="1.5"></path><path d="M660.42 1003.76L818.31 981.06" stroke="hsl(228.39999999999998, 78.2%, 42.1%)" stroke-width="1.5"></path><path d="M660.42 1003.76L789.88 849.44" stroke="hsl(228.39999999999998, 78.2%, 42.1%)" stroke-width="1.5"></path><path d="M849.36 550.74L849.36 550.74" stroke="hsl(228.39999999999998, 78.2%, 42.1%)" stroke-width="1.5"></path><path d="M849.36 550.74L973.64 491.67" stroke="hsl(228.39999999999998, 78.2%, 42.1%)" stroke-width="1.5"></path><path d="M849.36 550.74L844.48 704.25" stroke="hsl(228.39999999999998, 78.2%, 42.1%)" stroke-width="1.5"></path><path d="M844.48 704.25L844.48 704.25" stroke="hsl(228.39999999999998, 78.2%, 42.1%)" stroke-width="1.5"></path><path d="M844.48 704.25L996.15 676.48" stroke="hsl(228.39999999999998, 78.2%, 42.1%)" stroke-width="1.5"></path><path d="M844.48 704.25L789.88 849.44" stroke="hsl(228.39999999999998, 78.2%, 42.1%)" stroke-width="1.5"></path><path d="M844.48 704.25L1009.75 799.93" stroke="hsl(228.39999999999998, 78.2%, 42.1%)" stroke-width="1.5"></path><path d="M789.88 849.44L789.88 849.44" stroke="hsl(228.39999999999998, 78.2%, 42.1%)" stroke-width="1.5"></path><path d="M789.88 849.44L818.31 981.06" stroke="hsl(228.39999999999998, 78.2%, 42.1%)" stroke-width="1.5"></path><path d="M789.88 849.44L640.53 790.75" stroke="hsl(228.39999999999998, 78.2%, 42.1%)" stroke-width="1.5"></path><path d="M818.31 981.06L818.31 981.06" stroke="hsl(228.39999999999998, 78.2%, 42.1%)" stroke-width="1.5"></path><path d="M818.31 981.06L640.53 790.75" stroke="hsl(228.39999999999998, 78.2%, 42.1%)" stroke-width="1.5"></path><path d="M818.31 981.06L1009.75 799.93" stroke="hsl(228.39999999999998, 78.2%, 42.1%)" stroke-width="1.5"></path><path d="M818.31 981.06L844.48 704.25" stroke="hsl(228.39999999999998, 78.2%, 42.1%)" stroke-width="1.5"></path><path d="M973.64 491.67L973.64 491.67" stroke="hsl(228.39999999999998, 78.2%, 42.1%)" stroke-width="1.5"></path><path d="M973.64 491.67L1157.3 491.78" stroke="hsl(228.39999999999998, 78.2%, 42.1%)" stroke-width="1.5"></path><path d="M973.64 491.67L996.15 676.48" stroke="hsl(228.39999999999998, 78.2%, 42.1%)" stroke-width="1.5"></path><path d="M973.64 491.67L844.48 704.25" stroke="hsl(228.39999999999998, 78.2%, 42.1%)" stroke-width="1.5"></path><path d="M973.64 491.67L1129.12 692.51" stroke="hsl(228.39999999999998, 78.2%, 42.1%)" stroke-width="1.5"></path><path d="M996.15 676.48L996.15 676.48" stroke="hsl(228.39999999999998, 78.2%, 42.1%)" stroke-width="1.5"></path><path d="M996.15 676.48L1129.12 692.51" stroke="hsl(228.39999999999998, 78.2%, 42.1%)" stroke-width="1.5"></path><path d="M1139.6 229.81L1139.6 229.81" stroke="hsl(228.39999999999998, 78.2%, 42.1%)" stroke-width="1.5"></path><path d="M1139.6 229.81L1258.3 219.64" stroke="hsl(228.39999999999998, 78.2%, 42.1%)" stroke-width="1.5"></path><path d="M1139.6 229.81L1274.96 383.1" stroke="hsl(228.39999999999998, 78.2%, 42.1%)" stroke-width="1.5"></path><path d="M1139.6 229.81L1282.66 73.82" stroke="hsl(228.39999999999998, 78.2%, 42.1%)" stroke-width="1.5"></path><path d="M1139.6 229.81L1391.31 194.57" stroke="hsl(228.39999999999998, 78.2%, 42.1%)" stroke-width="1.5"></path><path d="M1157.3 491.78L1157.3 491.78" stroke="hsl(228.39999999999998, 78.2%, 42.1%)" stroke-width="1.5"></path><path d="M1157.3 491.78L1274.96 383.1" stroke="hsl(228.39999999999998, 78.2%, 42.1%)" stroke-width="1.5"></path><path d="M1157.3 491.78L1129.12 692.51" stroke="hsl(228.39999999999998, 78.2%, 42.1%)" stroke-width="1.5"></path><path d="M1129.12 692.51L1129.12 692.51" stroke="hsl(228.39999999999998, 78.2%, 42.1%)" stroke-width="1.5"></path><path d="M1129.12 692.51L1144.47 799.96" stroke="hsl(228.39999999999998, 78.2%, 42.1%)" stroke-width="1.5"></path><path d="M1129.12 692.51L1285.58 684.43" stroke="hsl(228.39999999999998, 78.2%, 42.1%)" stroke-width="1.5"></path><path d="M1129.12 692.51L1271.43 810.47" stroke="hsl(228.39999999999998, 78.2%, 42.1%)" stroke-width="1.5"></path><path d="M1144.47 799.96L1144.47 799.96" stroke="hsl(228.39999999999998, 78.2%, 42.1%)" stroke-width="1.5"></path><path d="M1144.47 799.96L1271.43 810.47" stroke="hsl(228.39999999999998, 78.2%, 42.1%)" stroke-width="1.5"></path><path d="M1144.47 799.96L1142.06 968.59" stroke="hsl(228.39999999999998, 78.2%, 42.1%)" stroke-width="1.5"></path><path d="M1142.06 968.59L1142.06 968.59" stroke="hsl(228.39999999999998, 78.2%, 42.1%)" stroke-width="1.5"></path><path d="M1142.06 968.59L1309.43 976.66" stroke="hsl(228.39999999999998, 78.2%, 42.1%)" stroke-width="1.5"></path><path d="M1265.23 -109.61L1265.23 -109.61" stroke="hsl(228.39999999999998, 78.2%, 42.1%)" stroke-width="1.5"></path><path d="M1265.23 -109.61L1444.03 -96.15" stroke="hsl(228.39999999999998, 78.2%, 42.1%)" stroke-width="1.5"></path><path d="M1265.23 -109.61L1282.66 73.82" stroke="hsl(228.39999999999998, 78.2%, 42.1%)" stroke-width="1.5"></path><path d="M1265.23 -109.61L1415.19 67.33" stroke="hsl(228.39999999999998, 78.2%, 42.1%)" stroke-width="1.5"></path><path d="M1265.23 -109.61L1588.15 -54.64" stroke="hsl(228.39999999999998, 78.2%, 42.1%)" stroke-width="1.5"></path><path d="M1265.23 -109.61L1391.31 194.57" stroke="hsl(228.39999999999998, 78.2%, 42.1%)" stroke-width="1.5"></path><path d="M1265.23 -109.61L1258.3 219.64" stroke="hsl(228.39999999999998, 78.2%, 42.1%)" stroke-width="1.5"></path><path d="M1282.66 73.82L1282.66 73.82" stroke="hsl(228.39999999999998, 78.2%, 42.1%)" stroke-width="1.5"></path><path d="M1258.3 219.64L1258.3 219.64" stroke="hsl(228.39999999999998, 78.2%, 42.1%)" stroke-width="1.5"></path><path d="M1258.3 219.64L1391.31 194.57" stroke="hsl(228.39999999999998, 78.2%, 42.1%)" stroke-width="1.5"></path><path d="M1258.3 219.64L1282.66 73.82" stroke="hsl(228.39999999999998, 78.2%, 42.1%)" stroke-width="1.5"></path><path d="M1274.96 383.1L1274.96 383.1" stroke="hsl(228.39999999999998, 78.2%, 42.1%)" stroke-width="1.5"></path><path d="M1274.96 383.1L1258.3 219.64" stroke="hsl(228.39999999999998, 78.2%, 42.1%)" stroke-width="1.5"></path><path d="M1274.96 383.1L1459.18 345.76" stroke="hsl(228.39999999999998, 78.2%, 42.1%)" stroke-width="1.5"></path><path d="M1285.58 684.43L1285.58 684.43" stroke="hsl(228.39999999999998, 78.2%, 42.1%)" stroke-width="1.5"></path><path d="M1285.58 684.43L1271.43 810.47" stroke="hsl(228.39999999999998, 78.2%, 42.1%)" stroke-width="1.5"></path><path d="M1271.43 810.47L1271.43 810.47" stroke="hsl(228.39999999999998, 78.2%, 42.1%)" stroke-width="1.5"></path><path d="M1271.43 810.47L1309.43 976.66" stroke="hsl(228.39999999999998, 78.2%, 42.1%)" stroke-width="1.5"></path><path d="M1271.43 810.47L1443.77 824.21" stroke="hsl(228.39999999999998, 78.2%, 42.1%)" stroke-width="1.5"></path><path d="M1309.43 976.66L1309.43 976.66" stroke="hsl(228.39999999999998, 78.2%, 42.1%)" stroke-width="1.5"></path><path d="M1444.03 -96.15L1444.03 -96.15" stroke="hsl(228.39999999999998, 78.2%, 42.1%)" stroke-width="1.5"></path><path d="M1444.03 -96.15L1588.15 -54.64" stroke="hsl(228.39999999999998, 78.2%, 42.1%)" stroke-width="1.5"></path><path d="M1444.03 -96.15L1282.66 73.82" stroke="hsl(228.39999999999998, 78.2%, 42.1%)" stroke-width="1.5"></path><path d="M1444.03 -96.15L1584.83 103.15" stroke="hsl(228.39999999999998, 78.2%, 42.1%)" stroke-width="1.5"></path><path d="M1391.31 194.57L1391.31 194.57" stroke="hsl(228.39999999999998, 78.2%, 42.1%)" stroke-width="1.5"></path><path d="M1391.31 194.57L1282.66 73.82" stroke="hsl(228.39999999999998, 78.2%, 42.1%)" stroke-width="1.5"></path><path d="M1391.31 194.57L1459.18 345.76" stroke="hsl(228.39999999999998, 78.2%, 42.1%)" stroke-width="1.5"></path><path d="M1391.31 194.57L1584.83 103.15" stroke="hsl(228.39999999999998, 78.2%, 42.1%)" stroke-width="1.5"></path><path d="M1459.18 345.76L1459.18 345.76" stroke="hsl(228.39999999999998, 78.2%, 42.1%)" stroke-width="1.5"></path><path d="M1459.18 345.76L1578.55 364.52" stroke="hsl(228.39999999999998, 78.2%, 42.1%)" stroke-width="1.5"></path><path d="M1459.18 345.76L1417.94 530.85" stroke="hsl(228.39999999999998, 78.2%, 42.1%)" stroke-width="1.5"></path><path d="M1417.94 530.85L1417.94 530.85" stroke="hsl(228.39999999999998, 78.2%, 42.1%)" stroke-width="1.5"></path><path d="M1417.94 530.85L1461.65 654.16" stroke="hsl(228.39999999999998, 78.2%, 42.1%)" stroke-width="1.5"></path><path d="M1461.65 654.16L1461.65 654.16" stroke="hsl(228.39999999999998, 78.2%, 42.1%)" stroke-width="1.5"></path><path d="M1461.65 654.16L1590.93 642.7" stroke="hsl(228.39999999999998, 78.2%, 42.1%)" stroke-width="1.5"></path><path d="M1461.65 654.16L1541.41 789.19" stroke="hsl(228.39999999999998, 78.2%, 42.1%)" stroke-width="1.5"></path><path d="M1443.77 824.21L1443.77 824.21" stroke="hsl(228.39999999999998, 78.2%, 42.1%)" stroke-width="1.5"></path><path d="M1443.77 824.21L1541.41 789.19" stroke="hsl(228.39999999999998, 78.2%, 42.1%)" stroke-width="1.5"></path><path d="M1443.77 824.21L1461.65 654.16" stroke="hsl(228.39999999999998, 78.2%, 42.1%)" stroke-width="1.5"></path><path d="M1443.77 824.21L1309.43 976.66" stroke="hsl(228.39999999999998, 78.2%, 42.1%)" stroke-width="1.5"></path><path d="M1588.15 -54.64L1588.15 -54.64" stroke="hsl(228.39999999999998, 78.2%, 42.1%)" stroke-width="1.5"></path><path d="M1588.15 -54.64L1584.83 103.15" stroke="hsl(228.39999999999998, 78.2%, 42.1%)" stroke-width="1.5"></path><path d="M1588.15 -54.64L1415.19 67.33" stroke="hsl(228.39999999999998, 78.2%, 42.1%)" stroke-width="1.5"></path><path d="M1584.83 103.15L1584.83 103.15" stroke="hsl(228.39999999999998, 78.2%, 42.1%)" stroke-width="1.5"></path><path d="M1584.83 103.15L1607.37 223.94" stroke="hsl(228.39999999999998, 78.2%, 42.1%)" stroke-width="1.5"></path><path d="M1584.83 103.15L1415.19 67.33" stroke="hsl(228.39999999999998, 78.2%, 42.1%)" stroke-width="1.5"></path><path d="M1607.37 223.94L1607.37 223.94" stroke="hsl(228.39999999999998, 78.2%, 42.1%)" stroke-width="1.5"></path><path d="M1607.37 223.94L1578.55 364.52" stroke="hsl(228.39999999999998, 78.2%, 42.1%)" stroke-width="1.5"></path><path d="M1607.37 223.94L1459.18 345.76" stroke="hsl(228.39999999999998, 78.2%, 42.1%)" stroke-width="1.5"></path><path d="M1607.37 223.94L1391.31 194.57" stroke="hsl(228.39999999999998, 78.2%, 42.1%)" stroke-width="1.5"></path><path d="M1607.37 223.94L1415.19 67.33" stroke="hsl(228.39999999999998, 78.2%, 42.1%)" stroke-width="1.5"></path><path d="M1607.37 223.94L1588.15 -54.64" stroke="hsl(228.39999999999998, 78.2%, 42.1%)" stroke-width="1.5"></path><path d="M1578.55 364.52L1578.55 364.52" stroke="hsl(228.39999999999998, 78.2%, 42.1%)" stroke-width="1.5"></path><path d="M1578.55 364.52L1590.14 524.59" stroke="hsl(228.39999999999998, 78.2%, 42.1%)" stroke-width="1.5"></path><path d="M1578.55 364.52L1417.94 530.85" stroke="hsl(228.39999999999998, 78.2%, 42.1%)" stroke-width="1.5"></path><path d="M1590.14 524.59L1590.14 524.59" stroke="hsl(228.39999999999998, 78.2%, 42.1%)" stroke-width="1.5"></path><path d="M1590.14 524.59L1590.93 642.7" stroke="hsl(228.39999999999998, 78.2%, 42.1%)" stroke-width="1.5"></path><path d="M1590.14 524.59L1417.94 530.85" stroke="hsl(228.39999999999998, 78.2%, 42.1%)" stroke-width="1.5"></path><path d="M1590.14 524.59L1461.65 654.16" stroke="hsl(228.39999999999998, 78.2%, 42.1%)" stroke-width="1.5"></path><path d="M1590.14 524.59L1459.18 345.76" stroke="hsl(228.39999999999998, 78.2%, 42.1%)" stroke-width="1.5"></path><path d="M1590.14 524.59L1541.41 789.19" stroke="hsl(228.39999999999998, 78.2%, 42.1%)" stroke-width="1.5"></path><path d="M1590.93 642.7L1590.93 642.7" stroke="hsl(228.39999999999998, 78.2%, 42.1%)" stroke-width="1.5"></path><path d="M1541.41 789.19L1541.41 789.19" stroke="hsl(228.39999999999998, 78.2%, 42.1%)" stroke-width="1.5"></path><path d="M1541.41 789.19L1590.93 642.7" stroke="hsl(228.39999999999998, 78.2%, 42.1%)" stroke-width="1.5"></path><path d="M1541.41 789.19L1588.41 983.19" stroke="hsl(228.39999999999998, 78.2%, 42.1%)" stroke-width="1.5"></path><path d="M1588.41 983.19L1588.41 983.19" stroke="hsl(228.39999999999998, 78.2%, 42.1%)" stroke-width="1.5"></path><path d="M1588.41 983.19L1443.77 824.21" stroke="hsl(228.39999999999998, 78.2%, 42.1%)" stroke-width="1.5"></path><path d="M1588.41 983.19L1309.43 976.66" stroke="hsl(228.39999999999998, 78.2%, 42.1%)" stroke-width="1.5"></path><path d="M1588.41 983.19L1590.93 642.7" stroke="hsl(228.39999999999998, 78.2%, 42.1%)" stroke-width="1.5"></path><path d="M1588.41 983.19L1461.65 654.16" stroke="hsl(228.39999999999998, 78.2%, 42.1%)" stroke-width="1.5"></path><path d="M1588.41 983.19L1271.43 810.47" stroke="hsl(228.39999999999998, 78.2%, 42.1%)" stroke-width="1.5"></path><circle r="25" cx="-59.43" cy="950.35" fill="url(#SvgjsRadialGradient1021)"></circle><circle r="25" cx="109.93" cy="828.74" fill="url(#SvgjsRadialGradient1021)"></circle><circle r="25" cx="640.53" cy="790.75" fill="url(#SvgjsRadialGradient1021)"></circle><circle r="25" cx="1009.75" cy="799.93" fill="url(#SvgjsRadialGradient1021)"></circle><circle r="25" cx="940.26" cy="977.71" fill="url(#SvgjsRadialGradient1021)"></circle><circle r="25" cx="1310.84" cy="514.02" fill="url(#SvgjsRadialGradient1021)"></circle><circle r="25" cx="1415.19" cy="67.33" fill="url(#SvgjsRadialGradient1021)"></circle><circle r="5" cx="-83.95" cy="858.45" fill="#8995c9"></circle><circle r="5" cx="257.78" cy="817.38" fill="#8995c9"></circle><circle r="5" cx="209.08" cy="1011.03" fill="#8995c9"></circle><circle r="5" cx="386.63" cy="829.22" fill="#8995c9"></circle><circle r="5" cx="386.46" cy="994.85" fill="#8995c9"></circle><circle r="5" cx="511.25" cy="655.22" fill="#8995c9"></circle><circle r="5" cx="496.84" cy="836.33" fill="#8995c9"></circle><circle r="5" cx="507.21" cy="998.83" fill="#8995c9"></circle><circle r="5" cx="705.28" cy="677.26" fill="#8995c9"></circle><circle r="5" cx="660.42" cy="1003.76" fill="#8995c9"></circle><circle r="5" cx="849.36" cy="550.74" fill="#8995c9"></circle><circle r="5" cx="844.48" cy="704.25" fill="#8995c9"></circle><circle r="5" cx="789.88" cy="849.44" fill="#8995c9"></circle><circle r="5" cx="818.31" cy="981.06" fill="#8995c9"></circle><circle r="5" cx="973.64" cy="491.67" fill="#8995c9"></circle><circle r="5" cx="996.15" cy="676.48" fill="#8995c9"></circle><circle r="5" cx="1139.6" cy="229.81" fill="#8995c9"></circle><circle r="5" cx="1157.3" cy="491.78" fill="#8995c9"></circle><circle r="5" cx="1129.12" cy="692.51" fill="#8995c9"></circle><circle r="5" cx="1144.47" cy="799.96" fill="#8995c9"></circle><circle r="5" cx="1142.06" cy="968.59" fill="#8995c9"></circle><circle r="5" cx="1265.23" cy="-109.61" fill="#8995c9"></circle><circle r="5" cx="1282.66" cy="73.82" fill="#8995c9"></circle><circle r="5" cx="1258.3" cy="219.64" fill="#8995c9"></circle><circle r="5" cx="1274.96" cy="383.1" fill="#8995c9"></circle><circle r="5" cx="1285.58" cy="684.43" fill="#8995c9"></circle><circle r="5" cx="1271.43" cy="810.47" fill="#8995c9"></circle><circle r="5" cx="1309.43" cy="976.66" fill="#8995c9"></circle><circle r="5" cx="1444.03" cy="-96.15" fill="#8995c9"></circle><circle r="5" cx="1391.31" cy="194.57" fill="#8995c9"></circle><circle r="5" cx="1459.18" cy="345.76" fill="#8995c9"></circle><circle r="5" cx="1417.94" cy="530.85" fill="#8995c9"></circle><circle r="5" cx="1461.65" cy="654.16" fill="#8995c9"></circle><circle r="5" cx="1443.77" cy="824.21" fill="#8995c9"></circle><circle r="5" cx="1588.15" cy="-54.64" fill="#8995c9"></circle><circle r="5" cx="1584.83" cy="103.15" fill="#8995c9"></circle><circle r="5" cx="1607.37" cy="223.94" fill="#8995c9"></circle><circle r="5" cx="1578.55" cy="364.52" fill="#8995c9"></circle><circle r="5" cx="1590.14" cy="524.59" fill="#8995c9"></circle><circle r="5" cx="1590.93" cy="642.7" fill="#8995c9"></circle><circle r="5" cx="1541.41" cy="789.19" fill="#8995c9"></circle><circle r="5" cx="1588.41" cy="983.19" fill="#8995c9"></circle></g><defs><mask id="SvgjsMask1020"><rect width="1440" height="900" fill="#ffffff"></rect></mask><radialGradient id="SvgjsRadialGradient1021"><stop stop-color="#ffffff" offset="0.1"></stop><stop stop-color="rgba(18, 43, 147, 1)" offset="0.2"></stop><stop stop-color="rgba(18, 43, 147, 0)" offset="1"></stop></radialGradient></defs></svg>